<svg xmlns="http://www.w3.org/2000/svg" viewBox="0 0 50.37 42.01"><defs><style>.cls-1{fill:#000;}</style></defs><title>Ресурс 1</title><g id="Слой_2" data-name="Слой 2"><g id="レイヤー_1" data-name="レイヤー 1"><path class="cls-1" d="M43.85,42a1.5,1.5,0,0,1-.91-.31L32.37,33.65H7.07A7.08,7.08,0,0,1,0,26.58V7.07A7.08,7.08,0,0,1,7.07,0H43.29a7.08,7.08,0,0,1,7.07,7.07v19.5a7.08,7.08,0,0,1-6.69,7.06l1.57,6.27A1.5,1.5,0,0,1,43.87,42ZM7.07,3A4.08,4.08,0,0,0,3,7.07v19.5a4.08,4.08,0,0,0,4.07,4.07H32.88a1.5,1.5,0,0,1,.91.31l7.57,5.77-1.05-4.21a1.5,1.5,0,0,1,1.45-1.86h1.53a4.08,4.08,0,0,0,4.07-4.07V7.07A4.08,4.08,0,0,0,43.29,3Z"/></g></g></svg>