<svg xmlns="http://www.w3.org/2000/svg" viewBox="0 0 50.37 42.01"><defs></defs><path d="M196,217.5a1.5,1.5,0,0,1-.91-.31l-10.57-8.05h-25.3a7.08,7.08,0,0,1-7.07-7.07v-19.5a7.08,7.08,0,0,1,7.07-7.07h36.22a7.08,7.08,0,0,1,7.07,7.07v19.5a7.08,7.08,0,0,1-6.69,7.06l1.57,6.27A1.5,1.5,0,0,1,196,217.5Zm-36.78-39a4.08,4.08,0,0,0-4.07,4.07v19.5a4.08,4.08,0,0,0,4.07,4.07H185a1.5,1.5,0,0,1,.91.31l7.57,5.77L192.44,208a1.5,1.5,0,0,1,1.46-1.86h1.53a4.08,4.08,0,0,0,4.07-4.07v-19.5a4.08,4.08,0,0,0-4.07-4.07Z" transform="translate(-152.13 -175.49)"/></svg>